<svg width="150" height="150" viewBox="0 0 150 150" fill="none" xmlns="http://www.w3.org/2000/svg">
<path d="M121.781 116.578V104.078L140.141 105.641L127.891 86.7969L135.391 88.8125L126.562 75.3438L132.016 76.0313L119.047 57.1719L112.391 66.8906L99.1406 46.5781L107.609 47.6406L87.5 17.9375L67.3906 47.625L75.8594 46.5625L62.0938 67.6875L73.7344 64.5625L54.6875 94.1562L82.8125 88.8594V108.094C73.5625 108.297 64.9375 110.313 58.2031 114.625C64.4531 117.875 71.0625 123.453 77.0938 132.813H143.75C138.719 126.422 130.891 120.828 121.781 116.578ZM112 67.4531L107.438 74.125L101.188 64.5156L112 67.4531ZM106.969 91.7813L97.9531 105.641L115.625 104.078V114.063C107.593 111.027 99.1802 109.118 90.625 108.391V88.8594L106.969 91.7813Z" fill="white" stroke="white"/>
<path d="M50.2969 116.344H50V110.938L57.8125 112.5L52.0938 101.969L56.25 103.125L51.3281 95.6406L54.3594 96.0156L46.875 85.9375L40 95.9844L43.0156 95.6094L40.3594 99.6562L34.5 90.2812L40.9375 92.0156L33.3281 80.4375L38.0156 81.0156L26.8906 64.7812L15.7656 80.9844L20.4531 80.4062L12.8438 91.9844L19.2813 90.25L8.75 106.469L23.4375 104.688V120.313C16.9286 123.285 11.0836 127.536 6.25 132.813H71.4375C64.3594 122.891 56.7031 118.328 50.2969 116.344ZM28.125 118.484V104.688L40.3906 106.094L37.5 112.5L45.3125 110.938V115.953C39.4798 115.792 33.6636 116.648 28.125 118.484Z" fill="white" stroke="white"/>
</svg>
