<svg width="150" height="150" viewBox="0 0 150 150" fill="none" xmlns="http://www.w3.org/2000/svg">
<path d="M37.5 62.1875C45.2665 62.1875 51.5625 55.8915 51.5625 48.125C51.5625 40.3585 45.2665 34.0625 37.5 34.0625C29.7335 34.0625 23.4375 40.3585 23.4375 48.125C23.4375 55.8915 29.7335 62.1875 37.5 62.1875Z" fill="white"/>
<path d="M112.5 62.1875C120.267 62.1875 126.562 55.8915 126.562 48.125C126.562 40.3585 120.267 34.0625 112.5 34.0625C104.733 34.0625 98.4375 40.3585 98.4375 48.125C98.4375 55.8915 104.733 62.1875 112.5 62.1875Z" fill="white"/>
<path d="M103.125 115.937V101.875C103.125 99.6875 102.187 97.5 100.312 96.25C96.5625 93.125 91.5625 90.9375 86.5625 89.6875C83.125 88.75 79.0625 87.8125 75 87.8125C71.25 87.8125 67.1875 88.4375 63.4375 89.6875C58.4375 90.9375 53.75 93.4375 49.6875 96.25C47.8125 97.8125 46.875 99.6875 46.875 101.875V115.937H103.125Z" fill="white"/>
<path d="M75 84.0625C82.7665 84.0625 89.0625 77.7665 89.0625 70C89.0625 62.2335 82.7665 55.9375 75 55.9375C67.2335 55.9375 60.9375 62.2335 60.9375 70C60.9375 77.7665 67.2335 84.0625 75 84.0625Z" fill="white"/>
<path d="M137.812 74.375C134.062 71.25 129.063 69.0625 124.062 67.8125C120.625 66.875 116.562 65.9375 112.5 65.9375C108.75 65.9375 104.687 66.5625 100.937 67.8125C99.0625 68.4375 97.1875 69.0625 95.3125 70V70.3125C95.3125 75.625 93.125 80.625 89.6875 84.0625C95.625 85.9375 100.312 88.4375 104.062 91.25C105 92.1875 105.937 92.8125 106.562 94.0625H140.625V80C140.625 77.8125 139.687 75.625 137.812 74.375Z" fill="white"/>
<path d="M45.9375 91.25C50.3125 88.125 55.3125 85.625 60.3125 84.0625C56.875 80.3125 54.6875 75.625 54.6875 70.3125C54.6875 70 54.6875 70 54.6875 69.6875C52.8125 69.0625 50.9375 68.125 49.0625 67.8125C45.625 66.875 41.5625 65.9375 37.5 65.9375C33.75 65.9375 29.6875 66.5625 25.9375 67.8125C20.9375 69.375 16.25 71.5625 12.1875 74.375C10.3125 75.625 9.375 77.8125 9.375 80V94.0625H43.125C44.0625 92.8125 44.6875 92.1875 45.9375 91.25Z" fill="white"/>
</svg>
