<svg width="150" height="150" viewBox="0 0 150 150" fill="none" xmlns="http://www.w3.org/2000/svg">
<path d="M110.938 68.75C104.844 68.75 100 63.9062 100 57.8125C100 51.7188 104.844 46.875 110.938 46.875C117.031 46.875 121.875 51.7188 121.875 57.8125C121.875 63.9062 117.031 68.75 110.938 68.75ZM128.125 57.8125C128.125 48.2812 120.469 40.625 110.938 40.625C101.406 40.625 93.75 48.2812 93.75 57.8125C93.75 65.625 99.0625 72.3438 106.25 74.375V110.938C106.25 123.906 95.7812 134.375 82.8125 134.375C69.8438 134.375 59.375 123.906 59.375 110.938V95C75.3125 92.6562 87.5 79.0625 87.5 62.5C87.5 60.1562 86.25 58.125 84.375 57.1875V18.75C84.375 14.0625 80.7812 10.1562 76.25 9.53125C75.625 7.65625 73.9062 6.25 71.875 6.25H70.3125C66.875 6.25 64.0625 9.0625 64.0625 12.5C64.0625 15.9375 66.875 18.75 70.3125 18.75H71.875C73.75 18.75 75.4688 17.5 76.25 15.9375C77.3438 16.4062 78.125 17.5 78.125 18.75V57.1875C76.25 58.2812 75 60.3125 75 62.5C75 73.75 65.9375 82.8125 54.6875 82.8125C43.4375 82.8125 34.375 73.75 34.375 62.5C34.375 60.1562 33.125 58.125 31.25 57.1875V18.75C31.25 17.5 32.0313 16.4062 33.125 15.9375C33.9063 17.6562 35.4688 18.75 37.5 18.75H39.0625C42.5 18.75 45.3125 15.9375 45.3125 12.5C45.3125 9.0625 42.5 6.25 39.0625 6.25H37.5C35.4688 6.25 33.75 7.65625 33.125 9.53125C28.5938 10.1562 25 14.0625 25 18.75V57.1875C23.125 58.2812 21.875 60.3125 21.875 62.5C21.875 79.0625 34.0625 92.6562 50 95V110.938C50 129.062 64.6875 143.75 82.8125 143.75C100.938 143.75 115.625 129.062 115.625 110.938V74.375C122.812 72.3438 128.125 65.625 128.125 57.8125Z" fill="#203864"/>
<path d="M110.938 65.625C115.252 65.625 118.75 62.1272 118.75 57.8125C118.75 53.4978 115.252 50 110.938 50C106.623 50 103.125 53.4978 103.125 57.8125C103.125 62.1272 106.623 65.625 110.938 65.625Z" fill="#203864"/>
</svg>
