<svg width="150" height="150" viewBox="0 0 150 150" fill="none" xmlns="http://www.w3.org/2000/svg">
<path d="M48.4375 48.4375H31.25V37.5H48.4375V48.4375ZM71.875 37.5V48.4375H54.6875V37.5H71.875ZM95.3125 37.5V48.4375H78.125V37.5H95.3125ZM118.75 37.5V48.4375H101.562V37.5H118.75ZM118.75 65.625H101.562V54.6875H118.75V65.625ZM118.75 78.9062L101.562 80.4688V71.875H118.75V78.9062ZM48.4375 71.875V85.1562L31.25 86.7188V71.875H48.4375ZM48.4375 65.625H31.25V54.6875H48.4375V65.625ZM71.875 65.625H54.6875V54.6875H71.875V65.625ZM78.125 65.625V54.6875H95.3125V65.625H78.125ZM71.875 83.125L54.6875 84.6875V71.875H71.875V83.125ZM78.125 71.875H95.3125V80.9375L78.125 82.5V71.875ZM128.125 87.5V28.125H31.25V26.5625C31.25 18.75 25 12.5 17.1875 12.5C14.5312 12.5 12.5 14.5312 12.5 17.1875C12.5 19.8438 14.5312 21.875 17.1875 21.875C19.8438 21.875 21.875 23.9062 21.875 26.5625V104.688C21.875 112.5 28.125 118.75 35.9375 118.75H40.625H109.375H123.438C126.094 118.75 128.125 116.719 128.125 114.062C128.125 111.406 126.094 109.375 123.438 109.375H35.9375C33.2812 109.375 31.25 107.344 31.25 104.688V96.0938L128.125 87.5Z" fill="#203864"/>
<path d="M40.625 137.5C45.8027 137.5 50 133.303 50 128.125C50 122.947 45.8027 118.75 40.625 118.75C35.4473 118.75 31.25 122.947 31.25 128.125C31.25 133.303 35.4473 137.5 40.625 137.5Z" fill="#203864"/>
<path d="M109.375 137.5C114.553 137.5 118.75 133.303 118.75 128.125C118.75 122.947 114.553 118.75 109.375 118.75C104.197 118.75 100 122.947 100 128.125C100 133.303 104.197 137.5 109.375 137.5Z" fill="#203864"/>
</svg>
