<svg width="150" height="150" viewBox="0 0 150 150" fill="none" xmlns="http://www.w3.org/2000/svg">
<path d="M118.75 93.75H31.25V40.625H118.75V93.75ZM128.125 37.5C128.125 34.0483 125.327 31.25 121.875 31.25H28.125C24.6733 31.25 21.875 34.0483 21.875 37.5V103.125H128.125V37.5Z" fill="#203864"/>
<path d="M84.375 109.375V110.938C84.4286 111.747 83.8158 112.446 83.0064 112.5C82.9419 112.504 82.877 112.504 82.8125 112.5H67.1875C66.3781 112.554 65.6786 111.941 65.625 111.131C65.6208 111.067 65.6208 111.002 65.625 110.938V109.375H3.125V112.5C3.125 115.952 5.92322 118.75 9.375 118.75H140.625C144.077 118.75 146.875 115.952 146.875 112.5V109.375H84.375Z" fill="#203864"/>
<path d="M75 45.3125C62.9187 45.3125 53.125 55.1062 53.125 67.1875C53.125 79.2687 62.9187 89.0625 75 89.0625C87.0812 89.0625 96.875 79.2687 96.875 67.1875C96.875 55.1062 87.0812 45.3125 75 45.3125ZM76.5625 68.75H83.7344C82.9177 74.1366 80.4055 79.1227 76.5625 82.9844V68.75ZM76.5625 65.625V51.375C80.4094 55.2403 82.9219 60.2325 83.7344 65.625H76.5625ZM73.4375 65.625H66.5C67.277 60.3248 69.7045 55.4044 73.4375 51.5625V65.625ZM73.4375 68.75V82.8125C69.7116 78.9656 67.2852 74.0477 66.5 68.75H73.4375ZM63.3594 65.625H56.6719C57.3655 57.4406 63.4066 50.7108 71.4688 49.1406C67.0144 53.5855 64.162 59.3836 63.3594 65.625ZM63.3594 68.75C64.1627 75.0022 67.0272 80.8083 71.5 85.25C63.4258 83.6809 57.3727 76.9453 56.6719 68.75H63.3594ZM86.875 68.75H93.3281C92.6439 76.8416 86.7297 83.5245 78.7812 85.1875C83.2333 80.7619 86.0816 74.9772 86.875 68.75ZM86.875 65.625C86.0752 59.4141 83.2463 53.6411 78.8281 49.2031C86.753 50.8825 92.643 57.5533 93.3281 65.625H86.875Z" fill="#203864"/>
</svg>
