<svg width="150" height="150" viewBox="0 0 150 150" fill="none" xmlns="http://www.w3.org/2000/svg">
<path d="M73.5937 30.7812C70 30.7812 67.0312 33.75 67.0312 37.3437C67.0312 40.9375 70 43.9062 73.5937 43.9062C77.1875 43.9062 80.1562 40.9375 80.1562 37.3437C80.1562 33.75 77.1875 30.7812 73.5937 30.7812Z" fill="#002060"/>
<path d="M53.9063 75.625C57.5306 75.625 60.4688 72.6869 60.4688 69.0625C60.4688 65.4381 57.5306 62.5 53.9063 62.5C50.2819 62.5 47.3438 65.4381 47.3438 69.0625C47.3438 72.6869 50.2819 75.625 53.9063 75.625Z" fill="#002060"/>
<path d="M92.1876 39.5312L88.2814 41.4062C87.9689 42.6562 87.3439 43.75 86.7189 44.8438L88.1251 48.9062L85.0001 52.0312L80.9376 50.625C79.8439 51.25 78.7501 51.7188 77.5001 52.0312L75.6251 55.7812H71.2501L69.3751 51.875C68.1251 51.5625 67.0314 51.0938 65.9376 50.4688L61.8751 51.875L58.7501 48.75L60.1564 44.6875C59.5314 43.5938 59.0626 42.5 58.7501 41.25L54.8439 39.375V35L58.7501 33.125C59.0626 31.875 59.5314 30.7812 60.1564 29.6875L58.9064 25.625L62.0314 22.5L66.0939 23.9062C67.1876 23.2812 68.2814 22.8125 69.5314 22.5L71.4064 18.5937H75.7814L77.6564 22.3438C78.9064 22.6562 80.0001 23.125 81.0939 23.75L85.1564 22.3438L88.2814 25.4687L86.8751 29.5312C87.5001 30.625 87.9689 31.7188 88.2814 32.9688L92.1876 34.8437V39.5312ZM72.5001 71.25L68.5939 73.125C68.2814 74.375 67.8126 75.4688 67.1876 76.5625L68.4376 80.625L65.3126 83.75L61.2501 82.3438C60.1564 82.9688 59.0626 83.4375 57.8126 83.75L56.0939 87.5H51.7189L49.8439 83.5938C48.5939 83.2812 47.5001 82.8125 46.4064 82.1875L42.3439 83.4375L39.2189 80.3125L40.6251 76.25C40.0001 75.1562 39.5314 74.0625 39.2189 72.8125L35.3126 70.9375V66.5625L39.2189 64.6875C39.5314 63.4375 40.0001 62.3438 40.6251 61.25L39.2189 57.1875L42.3439 54.0625L46.4064 55.4688C47.5001 54.8438 48.5939 54.375 49.8439 54.0625L51.7189 50.1562H56.2501L58.1251 54.0625C59.3751 54.375 60.4689 54.8438 61.5626 55.4688L65.6251 54.0625L68.7501 57.1875L67.3439 61.25C67.9689 62.3438 68.4376 63.4375 68.7501 64.6875L72.6564 66.5625L72.5001 71.25ZM126.563 77.0312L115.781 58.2812V57.5C116.406 40.3125 107.656 24.2187 92.8126 15.3125C77.9689 6.5625 59.6876 6.5625 44.8439 15.3125C30.0001 24.0625 21.2501 40.3125 21.8751 57.5C21.8751 72.3438 28.5939 86.25 40.3126 95.3125V134.844H89.6876V116.094H97.3439C102.344 116.094 107.031 114.063 110.469 110.625C113.906 107.031 115.781 102.344 115.781 97.3438V87.9688H122.656C126.719 87.5 130.313 82.8125 126.563 77.0312Z" fill="#002060"/>
</svg>
